# xmcd CD database file
#
# Track frame offsets:
#	150
#	27707
#	60268
#
# Disc length: 1371 seconds
#
# Revision: 0
# Processed by: cddbd v1.5.2PL0 Copyright (c) Steve Scherf et al.
# Submitted via: CDex 1.70beta2
#
DISCID=1f055903
DTITLE=Younee -  Younee Bonus CD
DYEAR=2016
DGENRE=Jazz
TTITLE0=Hello Hello
TTITLE1=Auf Flügeln des Gesanges
TTITLE2=Wednesday Night Improvisation
EXTD=YEAR: 2016
EXTT0=
EXTT1=
EXTT2=
PLAYORDER=
